<svg width="300" height="600" viewBox="0 0 300 600" xmlns="http://www.w3.org/2000/svg">
<defs>
<clipPath id="screen2"><rect x="0" y="0" width="300" height="600" rx="22"/></clipPath>
</defs>
<rect x="-12" y="-12" width="324" height="624" rx="34" fill="#1A1A1A"/>
<g clip-path="url(#screen2)">
<rect x="0" y="0" width="300" height="600" fill="#14171A"/>
<rect x="0" y="0" width="300" height="90" fill="#6E8FB5"/>
<text x="280" y="42" fill="#0C2F55" font-family="Helvetica, Arial, sans-serif" font-size="17" font-weight="600" text-anchor="end">المخزون</text>
<text x="280" y="62" fill="#0C2F55" font-family="Helvetica, Arial, sans-serif" font-size="11" text-anchor="end">128 قطعة &#183; مخزن أ</text>

<rect x="16" y="110" width="268" height="90" rx="8" fill="#1D2125"/>
<text x="268" y="136" fill="#EFF1F0" font-family="Helvetica, Arial, sans-serif" font-size="13" font-weight="600" text-anchor="end">صف A-12</text>
<rect x="18" y="118" width="80" height="22" rx="4" fill="#3F7D4F"/>
<text x="58" y="133" fill="#FFFFFF" font-family="Helvetica, Arial, sans-serif" font-size="10" font-weight="600" text-anchor="middle">متاح بالمخزن</text>
<rect x="118" y="150" width="150" height="28" rx="2" fill="#10131A"/>
<text x="128" y="169" fill="#7CE0A8" font-family="Courier New, monospace" font-size="12" letter-spacing="2">PLT-88213</text>

<rect x="16" y="210" width="268" height="90" rx="8" fill="#1D2125"/>
<text x="268" y="236" fill="#EFF1F0" font-family="Helvetica, Arial, sans-serif" font-size="13" font-weight="600" text-anchor="end">صف B-04</text>
<rect x="18" y="218" width="110" height="22" rx="4" fill="#B4750E"/>
<text x="73" y="233" fill="#FFFFFF" font-family="Helvetica, Arial, sans-serif" font-size="10" font-weight="600" text-anchor="middle">في انتظار المزامنة</text>
<rect x="118" y="250" width="150" height="28" rx="2" fill="#10131A"/>
<text x="128" y="269" fill="#7CE0A8" font-family="Courier New, monospace" font-size="12" letter-spacing="2">PLT-77410</text>
</g>
</svg>
