<svg width="680" height="420" viewBox="0 0 680 420" xmlns="http://www.w3.org/2000/svg">
<defs>
<marker id="arrow" viewBox="0 0 10 10" refX="8" refY="5" markerWidth="6" markerHeight="6" orient="auto-start-reverse">
<path d="M2 1L8 5L2 9" fill="none" stroke="#5B6470" stroke-width="1.5" stroke-linecap="round" stroke-linejoin="round"/>
</marker>
</defs>
<rect width="680" height="420" fill="#FBFBFE"/>

<rect x="270" y="30" width="140" height="44" rx="8" fill="#1F3A5F"/>
<text x="340" y="57" fill="#FFFFFF" font-family="Helvetica, Arial, sans-serif" font-size="14" font-weight="600" text-anchor="middle">:app</text>

<rect x="250" y="110" width="180" height="56" rx="8" fill="#6E8FB5"/>
<text x="340" y="134" fill="#0C2F55" font-family="Helvetica, Arial, sans-serif" font-size="14" font-weight="600" text-anchor="middle">:feature:inventory</text>
<text x="340" y="152" fill="#0C2F55" font-family="Helvetica, Arial, sans-serif" font-size="11" text-anchor="middle">Compose UI + ViewModel</text>

<rect x="490" y="110" width="150" height="56" rx="8" fill="#E8A33D"/>
<text x="565" y="134" fill="#4A2E00" font-family="Helvetica, Arial, sans-serif" font-size="14" font-weight="600" text-anchor="middle">:core:ui</text>
<text x="565" y="152" fill="#4A2E00" font-family="Helvetica, Arial, sans-serif" font-size="11" text-anchor="middle">Design system</text>

<rect x="250" y="210" width="180" height="56" rx="8" fill="#5B6470"/>
<text x="340" y="234" fill="#FFFFFF" font-family="Helvetica, Arial, sans-serif" font-size="14" font-weight="600" text-anchor="middle">:core:data</text>
<text x="340" y="252" fill="#E3E5E7" font-family="Helvetica, Arial, sans-serif" font-size="11" text-anchor="middle">Repositories, use cases</text>

<rect x="200" y="310" width="150" height="56" rx="8" fill="#E7E9EA" stroke="#5B6470" stroke-width="0.75"/>
<text x="275" y="334" fill="#23262B" font-family="Helvetica, Arial, sans-serif" font-size="14" font-weight="600" text-anchor="middle">:core:database</text>
<text x="275" y="352" fill="#5B6470" font-family="Helvetica, Arial, sans-serif" font-size="11" text-anchor="middle">Room</text>

<rect x="380" y="310" width="150" height="56" rx="8" fill="#E7E9EA" stroke="#5B6470" stroke-width="0.75"/>
<text x="455" y="334" fill="#23262B" font-family="Helvetica, Arial, sans-serif" font-size="14" font-weight="600" text-anchor="middle">:core:network</text>
<text x="455" y="352" fill="#5B6470" font-family="Helvetica, Arial, sans-serif" font-size="11" text-anchor="middle">Retrofit</text>

<line x1="340" y1="74" x2="340" y2="108" stroke="#5B6470" stroke-width="1" marker-end="url(#arrow)"/>
<line x1="405" y1="70" x2="530" y2="108" stroke="#5B6470" stroke-width="1" marker-end="url(#arrow)"/>
<line x1="430" y1="132" x2="488" y2="132" stroke="#5B6470" stroke-width="1" marker-end="url(#arrow)"/>
<line x1="340" y1="166" x2="340" y2="208" stroke="#5B6470" stroke-width="1" marker-end="url(#arrow)"/>
<line x1="310" y1="266" x2="285" y2="308" stroke="#5B6470" stroke-width="1" marker-end="url(#arrow)"/>
<line x1="380" y1="266" x2="440" y2="308" stroke="#5B6470" stroke-width="1" marker-end="url(#arrow)"/>

<text x="30" y="405" fill="#8A8F96" font-family="Helvetica, Arial, sans-serif" font-size="11">Arrows show Gradle module dependencies (one direction only — no cycles)</text>
</svg>
